#N canvas 160 177 1259 574 12;
#X obj 150 49 inlet;
#X obj 332 429 outlet;
#X obj 34 100 select 0 1 2 3 4 5 6 7 8 9 10 11 12 13 14 15 16 17 18, f 155;
#X floatatom 333 354 5 0 0 0 - - - 0;
#X msg 34 217 261.63;
#X msg 90 189 277.18;
#X msg 147 216 293.66;
#X msg 204 191 311.13;
#X msg 261 218 329.63;
#X msg 318 218 349.23;
#X msg 375 193 369.99;
#X msg 432 220 392;
#X msg 489 193 415.3;
#X msg 546 222 440;
#X msg 603 195 466.16;
#X msg 660 224 493.88;
#X msg 717 224 523.25;
#X msg 774 196 554.37;
#X msg 831 223 587.33;
#X msg 888 199 622.25;
#X msg 945 225 659.25;
#X msg 1002 225 698.46;
#X msg 1059 200 739.99;
#X msg 1116 227 65.41;
#X connect 0 0 2 0;
#X connect 2 0 4 0;
#X connect 2 1 5 0;
#X connect 2 2 6 0;
#X connect 2 3 7 0;
#X connect 2 4 8 0;
#X connect 2 5 9 0;
#X connect 2 6 10 0;
#X connect 2 7 11 0;
#X connect 2 8 12 0;
#X connect 2 9 13 0;
#X connect 2 10 14 0;
#X connect 2 11 15 0;
#X connect 2 12 16 0;
#X connect 2 13 17 0;
#X connect 2 14 18 0;
#X connect 2 15 19 0;
#X connect 2 16 20 0;
#X connect 2 17 21 0;
#X connect 2 18 22 0;
#X connect 2 19 23 0;
#X connect 3 0 1 0;
#X connect 4 0 3 0;
#X connect 5 0 3 0;
#X connect 6 0 3 0;
#X connect 7 0 3 0;
#X connect 8 0 3 0;
#X connect 9 0 3 0;
#X connect 10 0 3 0;
#X connect 11 0 3 0;
#X connect 12 0 3 0;
#X connect 13 0 3 0;
#X connect 14 0 3 0;
#X connect 15 0 3 0;
#X connect 16 0 3 0;
#X connect 17 0 3 0;
#X connect 18 0 3 0;
#X connect 19 0 3 0;
#X connect 20 0 3 0;
#X connect 21 0 3 0;
#X connect 22 0 3 0;
#X connect 23 0 3 0;
