#N canvas 130 130 450 300 12;
#X msg 130 166 devices;
#X msg 199 148 open 5;
#X msg 271 147 close;
#X obj 135 336 sel 13 10;
#X obj 139 411 cyclone/zl group 100;
#X obj 138 442 list tosymbol;
#X obj 140 474 cyclone/fromsymbol;
#X obj 158 270 comport 5 115200;
#X obj 376 142 unpack f f, f 12;
#X floatatom 376 213 5 0 0 0 - - - 0;
#X floatatom 457 214 5 0 0 0 - - - 0;
#X obj 456 308 outlet;
#X obj 376 307 outlet;
#X obj 197 61 inlet;
#X obj 280 68 inlet;
#X connect 0 0 7 0;
#X connect 1 0 7 0;
#X connect 2 0 7 0;
#X connect 3 0 4 0;
#X connect 3 2 4 0;
#X connect 4 0 5 0;
#X connect 5 0 6 0;
#X connect 6 0 8 0;
#X connect 7 0 3 0;
#X connect 8 0 9 0;
#X connect 8 1 10 0;
#X connect 9 0 12 0;
#X connect 10 0 11 0;
#X connect 13 0 1 0;
#X connect 14 0 2 0;
